<svg id="그룹_102" data-name="그룹 102" xmlns="http://www.w3.org/2000/svg" xmlns:xlink="http://www.w3.org/1999/xlink" width="28.682" height="35.222" viewBox="0 0 28.682 35.222">
  <defs>
    <clipPath id="clip-path">
      <rect id="사각형_83" data-name="사각형 83" width="28.682" height="35.222" fill="#fff"/>
    </clipPath>
  </defs>
  <g id="그룹_101" data-name="그룹 101" clip-path="url(#clip-path)">
    <path id="패스_59" data-name="패스 59" d="M23.956,50.44a7.955,7.955,0,0,1,3.8-6.7,8.244,8.244,0,0,0-6.435-3.5c-2.745-.276-5.358,1.618-6.746,1.618s-3.541-1.573-5.812-1.528a8.62,8.62,0,0,0-7.29,4.411c-3.105,5.39-.8,13.378,2.235,17.748,1.478,2.14,3.239,4.542,5.553,4.456,2.235-.086,3.078-1.442,5.776-1.442s3.454,1.442,5.816,1.405c2.4-.05,3.921-2.19,5.386-4.329a19.538,19.538,0,0,0,2.441-5.014,7.77,7.77,0,0,1-4.726-7.131" transform="translate(0 -31.73)" fill="#fff"/>
    <path id="패스_60" data-name="패스 60" d="M72.8,5.62A7.724,7.724,0,0,0,74.634,0,7.887,7.887,0,0,0,69.45,2.665a7.38,7.38,0,0,0-1.872,5.454A6.537,6.537,0,0,0,72.8,5.62" transform="translate(-53.283 0.001)" fill="#fff"/>
  </g>
</svg>
