<svg xmlns="http://www.w3.org/2000/svg" xmlns:xlink="http://www.w3.org/1999/xlink" width="452" height="105" viewBox="0 0 452 105">
  <defs>
    <linearGradient id="linear-gradient" y1="0.5" x2="1" y2="0.5" gradientUnits="objectBoundingBox">
      <stop offset="0" stop-color="#13b1e8"/>
      <stop offset="0.229" stop-color="#2ca0e3"/>
      <stop offset="0.716" stop-color="#6d74d6"/>
      <stop offset="0.988" stop-color="#955bcf"/>
    </linearGradient>
  </defs>
  <path id="패스_649" data-name="패스 649" d="M-965.71-345.429v5.6a17.621,17.621,0,0,1,15.757-8.692,16.714,16.714,0,0,1,16.211,10.979,19.5,19.5,0,0,1,18.488-10.979c11.106,0,19.124,8.508,19.124,21.774v30.03a1.8,1.8,0,0,1-1.8,1.808h-5.781a1.8,1.8,0,0,1-1.8-1.808v-28.475c0-9.424-4.553-15.094-11.932-15.094-7.839,0-13.48,7.685-13.48,17.2v26.371a1.8,1.8,0,0,1-1.8,1.808H-938.5a1.8,1.8,0,0,1-1.8-1.808v-28.123c0-9.788-4.645-15.461-11.932-15.461-7.741,0-13.48,7.685-13.48,17.108v26.463a1.8,1.8,0,0,1-1.8,1.808H-973.3a1.8,1.8,0,0,1-1.8-1.808v-48.717a1.8,1.8,0,0,1,1.8-1.808h5.781a1.8,1.8,0,0,1,1.28.531A1.815,1.815,0,0,1-965.71-345.429Zm128.962,24.36a26.373,26.373,0,0,1-7.4,19.493,26.126,26.126,0,0,1-19.2,7.954,26.145,26.145,0,0,1-19.252-7.926,26.393,26.393,0,0,1-7.434-19.521,26.393,26.393,0,0,1,7.434-19.521,26.146,26.146,0,0,1,19.252-7.926,26.127,26.127,0,0,1,19.194,7.957,26.374,26.374,0,0,1,7.395,19.491Zm-44.1,0c0,10.887,7.1,19.123,17.488,19.123,10.292,0,17.4-8.236,17.4-19.123s-7.1-19.123-17.4-19.123c-10.374,0-17.462,8.236-17.462,19.123Zm48.816,0c0-15.645,11.021-27.448,25.775-27.448a21.006,21.006,0,0,1,18.488,9.056v-5.969a1.8,1.8,0,0,1,1.8-1.808h5.781a1.8,1.8,0,0,1,1.8,1.808v48.717a1.8,1.8,0,0,1-1.8,1.808h-5.781a1.8,1.8,0,0,1-1.8-1.808v-5.968a21.007,21.007,0,0,1-18.488,9.06c-14.725,0-25.765-11.8-25.765-27.448Zm44.445,0c0-10.887-7.287-19.123-17.851-19.123-10.475,0-17.4,8.236-17.4,19.123s6.922,19.123,17.4,19.123c10.586,0,17.87-8.236,17.87-19.123Zm45.729-47.119c25.151,0,39.709,14.821,39.709,36.688s-14.571,36.6-39.709,36.6H-766.4a1.309,1.309,0,0,1-1.307-1.312v-70.645a1.309,1.309,0,0,1,1.307-1.312ZM-711.8-331.5c0-17.84-11.295-28.087-29.782-28.087H-757.5a.655.655,0,0,0-.653.656v54.669a.655.655,0,0,0,.653.656h15.917c18.5.013,29.792-10.051,29.792-27.891Zm67.758,10.431a26.373,26.373,0,0,1-7.4,19.494,26.126,26.126,0,0,1-19.2,7.954,26.146,26.146,0,0,1-19.252-7.926,26.393,26.393,0,0,1-7.434-19.521,26.392,26.392,0,0,1,7.434-19.521,26.145,26.145,0,0,1,19.252-7.926,26.126,26.126,0,0,1,19.2,7.951,26.372,26.372,0,0,1,7.4,19.5Zm-44.1,0c0,10.887,7.1,19.123,17.488,19.123,10.292,0,17.4-8.236,17.4-19.123s-7.1-19.123-17.4-19.123c-10.358,0-17.462,8.236-17.462,19.123ZM-1005.3-352.756a15.992,15.992,0,0,0,11.383-15.313,15.957,15.957,0,0,0-15.9-15.976,15.957,15.957,0,0,0-15.9,15.976,15.978,15.978,0,0,0,6.232,12.67c-6.438,1.446-13.043,6.443-19.086,14.574-.947,1.276-1.872,2.625-2.76,4.006a23.059,23.059,0,0,0-6.177-2.2,16,16,0,0,0,8-13.854,15.957,15.957,0,0,0-15.9-15.976,15.957,15.957,0,0,0-15.9,15.977A16,16,0,0,0-1061.238-338a31.821,31.821,0,0,0-10.332,6.766,70.576,70.576,0,0,0-13.663,19.418A150.91,150.91,0,0,0-1095.9-283.5a3.581,3.581,0,0,0,2.587,4.344,3.583,3.583,0,0,0,.869.108,3.567,3.567,0,0,0,3.453-2.71,145.9,145.9,0,0,1,10.125-26.811c5.808-11.455,15.29-24.879,27.483-23.8a17.276,17.276,0,0,1,6.464,1.769,79.679,79.679,0,0,0-5.552,13.489c-1.93,6.376-3.642,15.307-.827,21.656a10.657,10.657,0,0,0,9.081,6.562,8.359,8.359,0,0,0,7.621-4.4,34.274,34.274,0,0,0,5.026-15.166,35.3,35.3,0,0,0-2.5-18.319,22.736,22.736,0,0,0-3.63-5.6c.908-1.447,1.859-2.842,2.836-4.157,6.239-8.393,12.961-12.8,18.442-12.059a11.015,11.015,0,0,1,8.388,5.129c6.02,9.515,1.591,29.833-.624,36.858a3.583,3.583,0,0,0,2.316,4.5,3.56,3.56,0,0,0,4.475-2.326c.366-1.162,8.881-28.573-.15-42.86a17.859,17.859,0,0,0-5.246-5.457Zm-58.9-.115a8.8,8.8,0,0,1,8.777-8.817,8.8,8.8,0,0,1,8.777,8.817,8.8,8.8,0,0,1-8.777,8.817,8.8,8.8,0,0,1-8.735-8.814Zm26.157,50.275a12.629,12.629,0,0,1-3.691,6.563,3.511,3.511,0,0,1-3.064-2.33c-1.457-3.281-1.032-9.516,1.134-16.656a71.544,71.544,0,0,1,4.162-10.52,21.227,21.227,0,0,1,2.812,8.551,34.933,34.933,0,0,1-1.3,14.4Zm28.218-74.294a8.8,8.8,0,0,1,8.776,8.817,8.8,8.8,0,0,1-8.776,8.817,8.8,8.8,0,0,1-8.777-8.817,8.835,8.835,0,0,1,2.59-6.251,8.756,8.756,0,0,1,6.239-2.563Z" transform="translate(1096.012 384.046)" fill="url(#linear-gradient)"/>
</svg>
