<svg xmlns="http://www.w3.org/2000/svg" width="452" height="125" viewBox="0 0 452 125">
  <g id="그룹_76" data-name="그룹 76" transform="translate(-0.03 0.002)">
    <path id="패스_40" data-name="패스 40" d="M5727.217,5045.634c-20.27,7.722-21.717,32.817-21.717,32.817s11.925,11.544,29.921,4.343c12.065-4.826,18.687-15.675,27.509-26.061,6.65-7.828,11.582-13.513,11.582-13.513S5743.8,5039.316,5727.217,5045.634Zm16.892,11.583c-8.354,5.57-12.548,10.617-20.27,15.926a25.439,25.439,0,0,1-15.926,4.344,38.237,38.237,0,0,0,12.548-6.274c4.561-3.731,13.513-13.03,21.718-17.374s18.821-6.273,18.821-6.273A147.573,147.573,0,0,0,5744.109,5057.216Z" transform="translate(-5456.131 -5042.03)" fill="#46a21c"/>
    <path id="패스_41" data-name="패스 41" d="M5265.268,5178.669a8.175,8.175,0,0,0-5.874,2.48c-.8.652-7.813,5.965-24.29,5.965-19.859,0-26.509-10.854-28.676-19.3h49.911a8.2,8.2,0,1,0,0-16.409h-49.95c3.736-15.313,17.7-20.993,29.922-20.993,15.062,0,23.3,6.477,23.647,6.756H5260a8.2,8.2,0,1,0,10.53-12.577h0l-.043-.034h0c-.965-.8-13.286-10.554-34.168-10.554-12.021,0-23.276,3.77-31.692,10.617-7.075,5.758-15.5,16.481-15.6,34.892v.338c0,11.1,3.6,21.394,10.135,29.038,5.709,6.679,16.582,14.638,35.945,14.638,21.862,0,32.532-7.848,35.3-10.26a8.2,8.2,0,0,0-5.145-14.594Z" transform="translate(-5189 -5079.731)" fill="#303030"/>
    <path id="패스_42" data-name="패스 42" d="M5450.262,5178.669a8.174,8.174,0,0,0-5.874,2.48c-.8.652-7.813,5.965-24.29,5.965-27.542,0-29.68-20.873-29.68-27.267,0-21.718,16.64-29.439,30.887-29.439,15.062,0,23.3,6.477,23.648,6.756H5445a8.2,8.2,0,1,0,10.53-12.577h0l-.043-.034h0c-.965-.8-13.286-10.554-34.168-10.554-12.022,0-23.276,3.77-31.693,10.617-7.118,5.792-15.6,16.607-15.6,35.23,0,11.1,3.6,21.394,10.134,29.038,5.709,6.679,16.583,14.638,35.944,14.638,21.862,0,32.532-7.848,35.3-10.26a8.2,8.2,0,0,0-5.139-14.595Z" transform="translate(-5284.68 -5079.731)" fill="#303030"/>
    <path id="패스_43" data-name="패스 43" d="M6026.267,5179.169a8.17,8.17,0,0,0-5.873,2.481c-.8.651-7.813,5.965-24.29,5.965-19.859,0-26.51-10.854-28.676-19.3h49.911a8.2,8.2,0,0,0,0-16.409H5967.39c3.735-15.312,17.7-20.993,29.922-20.993,15.062,0,23.3,6.477,23.647,6.756H6021a8.2,8.2,0,1,0,10.53-12.576h0l-.042-.034h0c-.965-.8-13.287-10.554-34.169-10.554-12.021,0-23.276,3.769-31.692,10.617-7.075,5.758-15.5,16.481-15.6,34.892v.338c0,11.1,3.6,21.394,10.134,29.039,5.709,6.679,16.583,14.637,35.944,14.637,21.862,0,32.533-7.847,35.3-10.26a8.2,8.2,0,0,0-5.145-14.594Z" transform="translate(-5582.603 -5079.99)" fill="#303030"/>
    <path id="패스_44" data-name="패스 44" d="M5612.4,5185.072l3.909,6.046s1.423,1.776,2.843.709.356-2.842.356-2.842l-1.423-2.49,1.781-1.776h1.418s2.848-4.266,3.2-4.266.714,1.067,1.423,1.067a.7.7,0,0,0,.709-.715v-9.951l-2.664-1.955c0-1.066,6.042-4.976,6.042-4.976l-.661-.907a23.279,23.279,0,0,0-4.826-.517,22.881,22.881,0,0,0-22.745,25.771h7.1Z" transform="translate(-5402.388 -5104.643)"/>
    <path id="패스_45" data-name="패스 45" d="M5663.257,5216.614l-1.067-.714-1.066,2.133s-.352.715-.71.715a1.231,1.231,0,0,1-.708-.358l-.715-2.133h-2.307l-3.021,2.138-4.981,2.134-.352,1.776,2.485,2.132,1.448.358,2.132-1.066h2.843l2.93,2.842h2.761l2.133-2.133v-3.558l-1.781-2.238Z" transform="translate(-5426.57 -5132.33)"/>
    <path id="패스_46" data-name="패스 46" d="M5597.365,5130.409a28.956,28.956,0,1,1-28.956,28.956,28.957,28.957,0,0,1,28.956-28.956m0-16.409a45.365,45.365,0,1,0,45.365,45.365A45.365,45.365,0,0,0,5597.365,5114Z" transform="translate(-5376.733 -5079.731)" fill="#ff7143"/>
    <path id="패스_47" data-name="패스 47" d="M5842.262,5179.169a8.173,8.173,0,0,0-5.873,2.481c-.8.651-7.813,5.965-24.289,5.965-27.543,0-29.681-20.873-29.681-27.268,0-21.717,16.641-29.439,30.887-29.439,15.062,0,23.3,6.477,23.647,6.756H5837a8.2,8.2,0,1,0,10.53-12.576h0l-.043-.034h0c-.966-.8-13.287-10.554-34.169-10.554-12.021,0-23.276,3.769-31.692,10.617-7.119,5.791-15.6,16.607-15.6,35.23,0,11.1,3.6,21.394,10.135,29.039,5.709,6.679,16.582,14.637,35.944,14.637,21.861,0,32.532-7.847,35.3-10.26a8.2,8.2,0,0,0-5.14-14.594Z" transform="translate(-5487.43 -5079.99)" fill="#303030"/>
  </g>
</svg>
